<?xml version="1.0" encoding="UTF-8" standalone="no"?>
<svg
   xmlns:dc="http://purl.org/dc/elements/1.1/"
   xmlns:cc="http://creativecommons.org/ns#"
   xmlns:rdf="http://www.w3.org/1999/02/22-rdf-syntax-ns#"
   xmlns:svg="http://www.w3.org/2000/svg"
   xmlns="http://www.w3.org/2000/svg"
   xmlns:sodipodi="http://sodipodi.sourceforge.net/DTD/sodipodi-0.dtd"
   xmlns:inkscape="http://www.inkscape.org/namespaces/inkscape"
   width="7.1635208mm"
   height="19.140259mm"
   viewBox="0 0 7.1635208 19.140259"
   version="1.1"
   id="svg128"
   inkscape:version="1.0.1 (3bc2e813f5, 2020-09-07)"
   sodipodi:docname="belice2.svg">
  <defs
     id="defs122" />
  <sodipodi:namedview
     id="base"
     pagecolor="#ffffff"
     bordercolor="#666666"
     borderopacity="1.0"
     inkscape:pageopacity="0.0"
     inkscape:pageshadow="2"
     inkscape:zoom="0.98994949"
     inkscape:cx="-0.47271684"
     inkscape:cy="199.05642"
     inkscape:document-units="mm"
     inkscape:current-layer="layer1"
     inkscape:document-rotation="0"
     showgrid="false"
     inkscape:window-width="1258"
     inkscape:window-height="728"
     inkscape:window-x="78"
     inkscape:window-y="0"
     inkscape:window-maximized="0" />
  <metadata
     id="metadata125">
    <rdf:RDF>
      <cc:Work
         rdf:about="">
        <dc:format>image/svg+xml</dc:format>
        <dc:type
           rdf:resource="http://purl.org/dc/dcmitype/StillImage" />
        <dc:title></dc:title>
      </cc:Work>
    </rdf:RDF>
  </metadata>
  <g
     inkscape:label="Capa 1"
     inkscape:groupmode="layer"
     id="layer1"
     transform="translate(-132.48966,-140.10844)">
    <path
       d="m 137.20517,140.33218 c -0.18717,0.13527 -0.62389,0.81167 -0.95663,1.51061 -0.89424,1.91646 -1.22698,2.2772 -2.39158,2.50267 -0.5615,0.11273 -1.0814,0.33819 -1.18539,0.49602 -0.20796,0.36074 -0.24955,13.09953 -0.0624,13.88865 0.10398,0.40584 0.29114,0.51857 0.83185,0.51857 0.5615,0 0.74866,-0.13527 1.01902,-0.65384 0.16637,-0.36075 0.87344,-1.21752 1.55972,-1.87137 0.83185,-0.76658 1.45574,-1.62334 1.78848,-2.38993 0.47832,-1.08223 0.51991,-1.46552 0.51991,-3.94564 -0.0208,-3.56235 0.0832,-4.77986 0.47831,-5.38861 0.18717,-0.27056 0.33274,-0.78913 0.33274,-1.14988 0,-0.3382 0.14558,-0.99204 0.31195,-1.44297 0.31194,-0.81168 0.31194,-0.83423 -0.35354,-1.57826 -0.68628,-0.76658 -1.22698,-0.90186 -1.89246,-0.49602 z"
       id="path18-0"
       style="stroke-width:0.0216537;fill:#0066ff" />
  </g>
</svg>
