<?xml version="1.0" encoding="UTF-8" standalone="no"?>
<svg
   xmlns:dc="http://purl.org/dc/elements/1.1/"
   xmlns:cc="http://creativecommons.org/ns#"
   xmlns:rdf="http://www.w3.org/1999/02/22-rdf-syntax-ns#"
   xmlns:svg="http://www.w3.org/2000/svg"
   xmlns="http://www.w3.org/2000/svg"
   xmlns:sodipodi="http://sodipodi.sourceforge.net/DTD/sodipodi-0.dtd"
   xmlns:inkscape="http://www.inkscape.org/namespaces/inkscape"
   width="105.78801mm"
   height="88.358086mm"
   viewBox="0 0 105.78801 88.358087"
   version="1.1"
   id="svg30"
   inkscape:version="1.0.1 (3bc2e813f5, 2020-09-07)"
   sodipodi:docname="CATEST.svg">
  <defs
     id="defs24" />
  <sodipodi:namedview
     id="base"
     pagecolor="#ffffff"
     bordercolor="#666666"
     borderopacity="1.0"
     inkscape:pageopacity="0.0"
     inkscape:pageshadow="2"
     inkscape:zoom="0.7"
     inkscape:cx="164.21559"
     inkscape:cy="185.19943"
     inkscape:document-units="mm"
     inkscape:current-layer="layer1"
     inkscape:document-rotation="0"
     showgrid="false"
     inkscape:window-width="1258"
     inkscape:window-height="728"
     inkscape:window-x="92"
     inkscape:window-y="0"
     inkscape:window-maximized="0" />
  <metadata
     id="metadata27">
    <rdf:RDF>
      <cc:Work
         rdf:about="">
        <dc:format>image/svg+xml</dc:format>
        <dc:type
           rdf:resource="http://purl.org/dc/dcmitype/StillImage" />
        <dc:title></dc:title>
      </cc:Work>
    </rdf:RDF>
  </metadata>
  <g
     inkscape:label="Capa 1"
     inkscape:groupmode="layer"
     id="layer1"
     transform="translate(-17.408176,-99.451908)">
    <g
       transform="matrix(0.0207963,0,0,-0.02254652,14.093067,190.74104)"
       fill="#000000"
       stroke="none"
       id="g36">
      <path
         d="m 1397,4039 c -9,-6 -30,-36 -46,-67 -43,-85 -59,-101 -115,-111 -27,-5 -52,-15 -57,-22 -10,-16 -12,-581 -3,-616 5,-18 14,-23 40,-23 27,0 36,6 49,29 8,16 42,54 75,83 40,34 70,72 86,106 23,48 25,65 25,175 -1,158 4,212 23,239 9,12 16,35 16,51 0,15 7,44 15,64 15,36 15,37 -17,70 -33,34 -59,40 -91,22 z"
         id="path18" />
      <path
         d="m 590,3776 c 0,-107 1,-106 -87,-106 -55,0 -74,-3 -71,-12 3,-7 36,-36 74,-65 106,-80 134,-104 134,-116 0,-7 15,-24 34,-39 36,-29 46,-61 49,-158 l 2,-55 -40,2 c -89,6 -184,5 -245,-2 l -66,-7 -72,-118 c -40,-65 -72,-126 -72,-135 0,-10 -12,-33 -26,-52 -22,-29 -24,-38 -16,-62 8,-23 6,-34 -9,-57 -20,-30 -27,-124 -10,-124 5,0 33,-18 62,-40 30,-22 60,-40 69,-40 9,0 40,-25 70,-55 30,-30 62,-55 71,-55 9,0 36,-9 60,-20 32,-14 66,-20 122,-20 43,0 86,-4 95,-9 9,-5 46,-11 82,-12 l 65,-4 24,37 c 16,25 45,48 86,69 58,31 64,37 99,108 26,52 50,85 76,105 40,30 44,39 55,136 l 6,55 108,51 c 91,43 109,56 115,79 5,18 2,35 -9,51 -18,27 -45,32 -45,8 0,-12 -5,-14 -17,-9 -10,4 -30,10 -46,13 -15,2 -38,17 -51,33 -18,21 -34,29 -58,29 -66,0 -63,-14 -63,342 v 323 l -277,3 -278,2 z"
         id="path20" />
      <path
         d="m 2192,3154 c -92,-40 -534,-65 -607,-34 -27,11 -34,10 -77,-16 -31,-20 -49,-39 -55,-59 -7,-26 -24,-38 -115,-83 l -106,-53 -7,-74 c -7,-73 -8,-75 -50,-107 -43,-33 -70,-72 -60,-88 3,-4 25,-11 49,-14 48,-8 110,-50 187,-128 35,-37 54,-48 77,-48 17,0 33,4 37,10 3,5 22,14 43,19 32,9 41,8 75,-16 62,-43 77,-69 77,-129 v -54 h 43 c 51,0 77,-22 77,-66 0,-51 11,-57 85,-52 63,6 69,8 98,44 38,45 44,67 46,156 1,83 8,88 125,88 84,0 87,1 125,35 21,19 42,35 46,35 4,0 21,-12 38,-26 l 31,-26 26,33 c 14,19 40,48 58,64 96,88 132,129 132,150 0,15 12,32 31,46 26,18 34,20 57,10 14,-7 32,-21 40,-32 10,-14 25,-19 61,-19 41,0 50,4 69,29 12,16 38,35 59,42 21,7 57,22 80,34 22,13 66,26 97,29 l 56,8 -51,46 c -60,54 -87,70 -267,164 l -134,69 -101,-12 c -141,-15 -181,-13 -237,16 -55,28 -108,31 -158,9 z"
         id="path24" />
      <path
         d="m 3024,2811 c -64,-23 -106,-45 -168,-88 -63,-43 -106,-44 -148,-3 -16,17 -37,30 -47,30 -21,0 -61,-40 -61,-61 0,-27 -61,-99 -101,-120 -21,-10 -56,-42 -76,-69 -21,-28 -43,-50 -51,-50 -7,0 -24,12 -37,26 l -24,26 -52,-41 c -51,-41 -52,-41 -135,-41 h -84 v -64 c 0,-81 -7,-100 -61,-160 l -44,-47 -90,-9 c -53,-5 -94,-4 -100,1 -15,15 -35,10 -35,-9 0,-21 93,-137 153,-190 22,-21 65,-69 96,-107 31,-39 122,-134 202,-212 117,-114 150,-141 167,-137 12,4 44,-5 76,-20 30,-14 61,-26 68,-26 7,0 45,-11 83,-25 74,-26 101,-24 123,6 16,23 27,23 77,-1 22,-11 46,-19 54,-20 7,0 26,-11 43,-25 16,-14 38,-25 49,-25 19,0 139,56 139,65 0,2 -9,22 -21,44 -17,33 -19,50 -14,98 4,32 12,66 16,75 7,13 4,23 -10,37 -15,15 -18,26 -11,53 12,52 28,86 60,133 35,51 38,85 10,123 -17,23 -20,46 -22,162 l -3,135 48,107 c 51,117 61,186 32,242 -22,41 -19,108 5,139 11,14 20,35 20,46 0,18 -6,21 -37,20 -21,0 -61,-9 -89,-18 z"
         id="path26" />
      <path
         d="m 1058,2565 c -20,-33 -42,-52 -81,-71 -53,-26 -103,-84 -94,-108 8,-20 98,-76 122,-76 12,0 30,-7 41,-15 10,-8 33,-15 49,-15 17,0 53,-12 80,-26 28,-13 70,-27 95,-30 25,-4 60,-16 78,-27 29,-17 37,-18 60,-7 15,7 55,12 89,11 36,-1 65,3 69,10 3,6 22,17 40,25 39,16 49,44 40,109 -6,37 -15,51 -50,80 -49,40 -68,43 -114,15 -51,-31 -84,-26 -120,19 -43,54 -149,132 -192,142 -70,17 -83,12 -112,-36 z"
         id="path28" />
      <path
         d="m 2319,1455 c -24,-13 -26,-19 -22,-62 4,-46 -9,-92 -39,-134 -6,-9 -8,-23 -4,-30 61,-120 114,-179 183,-205 26,-10 61,-26 76,-37 l 29,-20 25,26 26,25 -26,32 c -15,17 -27,41 -27,53 l 1,22 17,-21 c 10,-12 34,-29 53,-39 51,-25 139,-115 139,-141 0,-27 44,-64 75,-64 38,0 132,-60 201,-128 39,-39 42,-52 14,-77 -27,-24 -25,-53 4,-65 13,-4 32,-19 42,-32 27,-34 43,-41 60,-27 13,10 12,15 -7,35 -11,12 -19,30 -17,41 9,43 108,-18 108,-68 0,-38 12,-37 56,7 31,31 35,41 30,68 -4,17 -7,86 -7,153 -1,118 0,124 25,153 14,18 26,36 26,41 0,13 -157,185 -191,209 -15,12 -33,36 -38,55 -5,19 -19,48 -31,65 -12,16 -24,46 -27,65 -3,19 -10,35 -15,35 -4,0 -39,-15 -77,-34 l -68,-35 -44,26 c -51,29 -137,63 -159,63 -9,0 -23,-9 -33,-20 -9,-11 -25,-20 -34,-20 -24,0 -223,64 -261,84 -36,19 -31,19 -63,1 z"
         id="path30" />
      <path
         d="m 3351,916 c -21,-23 -23,-32 -22,-151 1,-70 6,-135 11,-145 8,-15 2,-29 -25,-64 -19,-26 -35,-53 -35,-61 0,-17 31,-20 46,-5 20,20 186,11 200,-11 3,-5 20,-9 37,-9 18,0 48,-9 67,-19 19,-11 53,-28 75,-39 22,-11 58,-41 79,-68 65,-82 96,-103 96,-65 0,23 18,36 50,36 20,0 26,-6 30,-35 4,-19 11,-44 17,-55 6,-11 13,-37 17,-57 l 7,-38 h 51 c 39,0 57,6 80,25 24,20 41,25 84,25 62,0 69,13 28,51 -36,32 -144,179 -144,195 0,19 131,94 164,94 7,0 27,15 45,34 29,29 31,37 21,56 -16,30 3,50 50,50 24,0 43,7 54,19 27,30 16,54 -31,71 -39,13 -44,13 -62,-4 -29,-26 -54,-15 -41,19 14,36 15,35 -29,35 -22,0 -48,-8 -62,-19 -13,-10 -40,-22 -59,-26 -19,-4 -51,-15 -70,-25 -19,-10 -68,-28 -107,-41 l -73,-23 -42,24 c -24,12 -56,35 -71,49 -26,24 -29,25 -38,8 -11,-19 -35,-18 -129,5 -45,11 -89,49 -90,78 0,8 -9,29 -20,47 -14,24 -32,36 -71,47 -66,20 -61,20 -88,-8 z"
         id="path32" />
      <path
         d="m 4417,875 c -39,-34 -42,-55 -7,-55 21,0 40,-27 33,-47 -6,-18 56,-44 91,-38 34,6 148,-43 210,-90 18,-14 41,-25 50,-25 9,0 25,-13 34,-30 17,-30 22,-32 98,-34 50,-2 85,-46 37,-46 -9,0 -35,-16 -58,-35 l -42,-34 13,-53 c 12,-46 29,-74 109,-189 24,-34 36,-36 60,-9 14,15 16,29 11,64 -8,53 6,68 30,31 10,-15 26,-25 41,-25 30,0 83,38 83,61 0,9 9,28 21,42 17,23 19,32 10,63 -5,19 -22,52 -37,71 -20,27 -27,46 -26,77 2,38 -3,47 -56,100 -31,32 -74,67 -95,77 -20,11 -48,37 -61,58 -19,29 -33,40 -58,44 -18,3 -62,12 -98,20 -152,34 -211,41 -231,29 -23,-15 -85,-16 -94,-2 -11,17 -28,10 -68,-25 z"
         id="path34" />
    </g>
  </g>
</svg>
