<?xml version="1.0" encoding="UTF-8" standalone="no"?>
<svg
   xmlns:dc="http://purl.org/dc/elements/1.1/"
   xmlns:cc="http://creativecommons.org/ns#"
   xmlns:rdf="http://www.w3.org/1999/02/22-rdf-syntax-ns#"
   xmlns:svg="http://www.w3.org/2000/svg"
   xmlns="http://www.w3.org/2000/svg"
   xmlns:sodipodi="http://sodipodi.sourceforge.net/DTD/sodipodi-0.dtd"
   xmlns:inkscape="http://www.inkscape.org/namespaces/inkscape"
   width="23.043987mm"
   height="21.570265mm"
   viewBox="0 0 23.043987 21.570265"
   version="1.1"
   id="svg230"
   inkscape:version="1.0.1 (3bc2e813f5, 2020-09-07)"
   sodipodi:docname="costarica2.svg">
  <defs
     id="defs224" />
  <sodipodi:namedview
     id="base"
     pagecolor="#ffffff"
     bordercolor="#666666"
     borderopacity="1.0"
     inkscape:pageopacity="0.0"
     inkscape:pageshadow="2"
     inkscape:zoom="0.35"
     inkscape:cx="0.69056028"
     inkscape:cy="140.76269"
     inkscape:document-units="mm"
     inkscape:current-layer="layer1"
     inkscape:document-rotation="0"
     showgrid="false"
     inkscape:window-width="1258"
     inkscape:window-height="728"
     inkscape:window-x="92"
     inkscape:window-y="0"
     inkscape:window-maximized="0" />
  <metadata
     id="metadata227">
    <rdf:RDF>
      <cc:Work
         rdf:about="">
        <dc:format>image/svg+xml</dc:format>
        <dc:type
           rdf:resource="http://purl.org/dc/dcmitype/StillImage" />
        <dc:title></dc:title>
      </cc:Work>
    </rdf:RDF>
  </metadata>
  <g
     inkscape:label="Capa 1"
     inkscape:groupmode="layer"
     id="layer1"
     transform="translate(-105.65062,-110.92321)">
    <path
       d="m 107.04566,111.22481 c -0.49911,0.29311 -0.5407,0.42839 -0.45752,1.39789 0.0832,1.03714 -0.18716,2.07428 -0.81105,3.02123 -0.12478,0.20292 -0.16637,0.51857 -0.0832,0.6764 1.26858,2.70558 2.37078,4.03582 3.80572,4.62203 0.54071,0.22547 1.26858,0.58621 1.58052,0.83423 l 0.6031,0.45093 0.5199,-0.58621 0.54071,-0.56367 -0.54071,-0.72149 c -0.31194,-0.38329 -0.5615,-0.9244 -0.5615,-1.19496 l 0.0208,-0.49602 0.35354,0.47347 c 0.20796,0.27056 0.70707,0.65385 1.1022,0.87932 1.06061,0.56366 2.89069,2.59285 2.89069,3.17906 0,0.60875 0.91503,1.44297 1.55972,1.44297 0.79026,0 2.74511,1.35279 4.18006,2.88596 0.81105,0.87931 0.87344,1.17242 0.29114,1.73608 -0.5615,0.54112 -0.5199,1.19497 0.0832,1.46552 0.27036,0.0902 0.66549,0.42839 0.87345,0.72149 0.5615,0.76658 0.89424,0.92441 1.24778,0.60876 0.27035,-0.22547 0.24955,-0.3382 -0.14558,-0.78913 -0.22876,-0.27056 -0.39513,-0.6764 -0.35353,-0.92441 0.18716,-0.9695 2.246,0.40584 2.246,1.53317 0,0.85676 0.24955,0.83422 1.16459,-0.15783 0.64468,-0.69894 0.72787,-0.92441 0.62389,-1.53316 -0.0832,-0.38329 -0.14558,-1.939 -0.14558,-3.44962 -0.0208,-2.66049 0,-2.79577 0.51991,-3.44962 0.29115,-0.40584 0.5407,-0.81167 0.5407,-0.92441 0,-0.2931 -3.26501,-4.1711 -3.97209,-4.71222 -0.31195,-0.27056 -0.68628,-0.81167 -0.79026,-1.24006 -0.10398,-0.42838 -0.39513,-1.08223 -0.64469,-1.46552 -0.24955,-0.36074 -0.49911,-1.03714 -0.5615,-1.46552 -0.0624,-0.42839 -0.20796,-0.78913 -0.31194,-0.78913 -0.0832,0 -0.81106,0.3382 -1.60132,0.76658 l -1.41415,0.78913 -0.91503,-0.58621 c -1.06062,-0.65385 -2.8491,-1.42043 -3.30662,-1.42043 -0.18716,0 -0.47831,0.20292 -0.68627,0.45093 -0.18717,0.24801 -0.51991,0.45093 -0.70708,0.45093 -0.49911,0 -4.63757,-1.44298 -5.42783,-1.89391 -0.74867,-0.42838 -0.64469,-0.42838 -1.31017,-0.0225 z"
       id="path30"
       style="stroke-width:0.0216537;fill:#0066ff" />
  </g>
</svg>
