<?xml version="1.0" encoding="UTF-8" standalone="no"?>
<svg
   xmlns:dc="http://purl.org/dc/elements/1.1/"
   xmlns:cc="http://creativecommons.org/ns#"
   xmlns:rdf="http://www.w3.org/1999/02/22-rdf-syntax-ns#"
   xmlns:svg="http://www.w3.org/2000/svg"
   xmlns="http://www.w3.org/2000/svg"
   xmlns:sodipodi="http://sodipodi.sourceforge.net/DTD/sodipodi-0.dtd"
   xmlns:inkscape="http://www.inkscape.org/namespaces/inkscape"
   width="15.953497mm"
   height="9.6297216mm"
   viewBox="0 0 15.953497 9.6297216"
   version="1.1"
   id="svg175"
   inkscape:version="1.0.1 (3bc2e813f5, 2020-09-07)"
   sodipodi:docname="esa.svg">
  <defs
     id="defs169" />
  <sodipodi:namedview
     id="base"
     pagecolor="#ffffff"
     bordercolor="#666666"
     borderopacity="1.0"
     inkscape:pageopacity="0.0"
     inkscape:pageshadow="2"
     inkscape:zoom="0.35"
     inkscape:cx="270.14834"
     inkscape:cy="21.055031"
     inkscape:document-units="mm"
     inkscape:current-layer="layer1"
     inkscape:document-rotation="0"
     showgrid="false"
     inkscape:window-width="1258"
     inkscape:window-height="728"
     inkscape:window-x="92"
     inkscape:window-y="0"
     inkscape:window-maximized="0" />
  <metadata
     id="metadata172">
    <rdf:RDF>
      <cc:Work
         rdf:about="">
        <dc:format>image/svg+xml</dc:format>
        <dc:type
           rdf:resource="http://purl.org/dc/dcmitype/StillImage" />
        <dc:title />
      </cc:Work>
    </rdf:RDF>
  </metadata>
  <g
     inkscape:label="Capa 1"
     inkscape:groupmode="layer"
     id="layer1"
     transform="translate(-34.356585,-142.59586)">
    <path
       d="m 38.017897,143.60794 c -0.415926,0.74404 -0.873445,1.17242 -1.6845,1.6008 -1.102204,0.58621 -2.142019,1.89391 -1.954852,2.43503 0.16637,0.45093 2.038037,1.71353 2.537148,1.71353 0.249556,0 0.623889,0.15783 0.852649,0.3382 0.207963,0.18037 0.686277,0.3382 1.019018,0.3382 0.353537,0 1.102204,0.27056 1.663704,0.58621 0.582297,0.2931 1.455741,0.60875 1.975649,0.67639 0.519907,0.0902 1.247778,0.36075 1.622111,0.60876 0.603093,0.38329 0.769463,0.40584 1.247778,0.15783 0.311944,-0.15783 1.143796,-0.27056 1.850871,-0.24802 0.748666,0.0225 1.351759,-0.0676 1.434944,-0.22546 0.06239,-0.13528 0.457519,-0.38329 0.831852,-0.56366 0.811056,-0.36075 1.019019,-0.99205 0.831852,-2.45757 -0.124777,-0.83423 -0.311944,-1.14988 -1.039815,-1.80373 -1.019019,-0.90186 -1.414148,-0.9695 -2.370778,-0.33819 -1.060611,0.69894 -1.746889,0.58621 -2.495556,-0.42839 -0.89424,-1.21751 -3.098648,-2.97614 -3.992889,-3.2016 -1.455741,-0.38329 -1.726093,-0.27056 -2.329186,0.81167 z"
       id="path28"
       style="stroke-width:0.0216537" />
  </g>
</svg>
