<?xml version="1.0" encoding="UTF-8" standalone="no"?>
<svg
   xmlns:dc="http://purl.org/dc/elements/1.1/"
   xmlns:cc="http://creativecommons.org/ns#"
   xmlns:rdf="http://www.w3.org/1999/02/22-rdf-syntax-ns#"
   xmlns:svg="http://www.w3.org/2000/svg"
   xmlns="http://www.w3.org/2000/svg"
   xmlns:sodipodi="http://sodipodi.sourceforge.net/DTD/sodipodi-0.dtd"
   xmlns:inkscape="http://www.inkscape.org/namespaces/inkscape"
   width="26.555529mm"
   height="32.354252mm"
   viewBox="0 0 26.555529 32.354252"
   version="1.1"
   id="svg82"
   inkscape:version="1.0.1 (3bc2e813f5, 2020-09-07)"
   sodipodi:docname="guate.svg">
  <defs
     id="defs76" />
  <sodipodi:namedview
     id="base"
     pagecolor="#ffffff"
     bordercolor="#666666"
     borderopacity="1.0"
     inkscape:pageopacity="0.0"
     inkscape:pageshadow="2"
     inkscape:zoom="0.35"
     inkscape:cx="81.612245"
     inkscape:cy="243.999"
     inkscape:document-units="mm"
     inkscape:current-layer="layer1"
     inkscape:document-rotation="0"
     showgrid="false"
     inkscape:window-width="1258"
     inkscape:window-height="728"
     inkscape:window-x="26"
     inkscape:window-y="0"
     inkscape:window-maximized="0" />
  <metadata
     id="metadata79">
    <rdf:RDF>
      <cc:Work
         rdf:about="">
        <dc:format>image/svg+xml</dc:format>
        <dc:type
           rdf:resource="http://purl.org/dc/dcmitype/StillImage" />
        <dc:title></dc:title>
      </cc:Work>
    </rdf:RDF>
  </metadata>
  <g
     inkscape:label="Capa 1"
     inkscape:groupmode="layer"
     id="layer1"
     transform="translate(-84.240094,-83.608597)">
    <path
       d="m 93.194801,85.277027 c 0,2.412477 0.0208,2.389931 -1.809278,2.389931 -1.143796,0 -1.538926,0.06764 -1.476537,0.270558 0.06239,0.157826 0.748667,0.811675 1.538926,1.465524 2.204408,1.803721 2.786705,2.344838 2.786705,2.615396 0,0.157825 0.311945,0.541116 0.707074,0.879314 0.748667,0.653849 0.95663,1.375338 1.019019,3.56235 l 0.04159,1.240058 -0.831852,-0.04509 c -1.850869,-0.135282 -3.826517,-0.112735 -5.095091,0.04509 l -1.372556,0.157826 -1.497334,2.660486 c -0.831852,1.46553 -1.497334,2.84087 -1.497334,3.04378 0,0.22547 -0.249555,0.74404 -0.540703,1.17242 -0.457519,0.65385 -0.499112,0.85677 -0.332741,1.39789 0.16637,0.51857 0.124778,0.76658 -0.187167,1.28515 -0.415926,0.67639 -0.5615,2.79577 -0.207963,2.79577 0.103982,0 0.686278,0.40583 1.289371,0.90186 0.623889,0.49602 1.247778,0.90186 1.434944,0.90186 0.187167,0 0.831853,0.56366 1.455741,1.24006 0.623889,0.67639 1.289371,1.24006 1.476538,1.24006 0.187167,0 0.748667,0.20292 1.247778,0.45092 0.665481,0.31566 1.372556,0.45094 2.537149,0.45094 0.894241,0 1.788482,0.0902 1.975648,0.20291 0.187167,0.11274 0.95663,0.24802 1.705297,0.27056 l 1.35176,0.0902 0.499111,-0.83422 c 0.33274,-0.56366 0.935834,-1.08223 1.788484,-1.55571 1.20618,-0.69894 1.33096,-0.83422 2.05883,-2.43502 0.5407,-1.17242 1.03982,-1.91645 1.58052,-2.36739 0.83185,-0.67639 0.91504,-0.87931 1.1438,-3.06632 l 0.12477,-1.24006 2.246,-1.14987 c 1.89247,-0.9695 2.2668,-1.26261 2.39158,-1.78118 0.10398,-0.40584 0.0416,-0.78913 -0.18717,-1.14987 -0.37433,-0.608757 -0.93583,-0.72149 -0.93583,-0.18037 0,0.27056 -0.10398,0.31565 -0.35354,0.20292 -0.20796,-0.0902 -0.62389,-0.22547 -0.95663,-0.29311 -0.31194,-0.0451 -0.79026,-0.38329 -1.06061,-0.744034 -0.37433,-0.473477 -0.70707,-0.653849 -1.20618,-0.653849 -1.37256,0 -1.31017,0.315651 -1.31017,-7.71091 v -7.28253 l -5.760577,-0.06764 -5.781372,-0.04509 z"
       id="path20"
       style="stroke-width:0.0216537" />
  </g>
</svg>
