<?xml version="1.0" encoding="UTF-8" standalone="no"?>
<svg
   xmlns:dc="http://purl.org/dc/elements/1.1/"
   xmlns:cc="http://creativecommons.org/ns#"
   xmlns:rdf="http://www.w3.org/1999/02/22-rdf-syntax-ns#"
   xmlns:svg="http://www.w3.org/2000/svg"
   xmlns="http://www.w3.org/2000/svg"
   xmlns:sodipodi="http://sodipodi.sourceforge.net/DTD/sodipodi-0.dtd"
   xmlns:inkscape="http://www.inkscape.org/namespaces/inkscape"
   width="42.155807mm"
   height="22.725822mm"
   viewBox="0 0 42.155807 22.725822"
   version="1.1"
   id="svg105"
   inkscape:version="1.0.1 (3bc2e813f5, 2020-09-07)"
   sodipodi:docname="honduras2.svg">
  <defs
     id="defs99" />
  <sodipodi:namedview
     id="base"
     pagecolor="#ffffff"
     bordercolor="#666666"
     borderopacity="1.0"
     inkscape:pageopacity="0.0"
     inkscape:pageshadow="2"
     inkscape:zoom="0.35"
     inkscape:cx="213.95023"
     inkscape:cy="140.08928"
     inkscape:document-units="mm"
     inkscape:current-layer="layer1"
     inkscape:document-rotation="0"
     showgrid="false"
     inkscape:window-width="1258"
     inkscape:window-height="728"
     inkscape:window-x="52"
     inkscape:window-y="0"
     inkscape:window-maximized="0" />
  <metadata
     id="metadata102">
    <rdf:RDF>
      <cc:Work
         rdf:about="">
        <dc:format>image/svg+xml</dc:format>
        <dc:type
           rdf:resource="http://purl.org/dc/dcmitype/StillImage" />
        <dc:title></dc:title>
      </cc:Work>
    </rdf:RDF>
  </metadata>
  <g
     inkscape:label="Capa 1"
     inkscape:groupmode="layer"
     id="layer1"
     transform="translate(-49.225667,-111.10138)">
    <path
       d="m 71.666582,111.42875 c -1.91326,0.90186 -11.105224,1.46552 -12.623354,0.76658 -0.5615,-0.24801 -0.707074,-0.22546 -1.601315,0.36075 -0.644685,0.45093 -1.019019,0.87931 -1.143797,1.33024 -0.145574,0.58621 -0.499111,0.85677 -2.391574,1.87136 l -2.204408,1.19497 -0.145574,1.66844 c -0.145574,1.64589 -0.16637,1.69099 -1.039815,2.41248 -0.894241,0.74403 -1.455741,1.62335 -1.247778,1.98409 0.06239,0.0902 0.519908,0.24801 1.019019,0.31565 0.998222,0.18037 2.287593,1.12733 3.888908,2.88596 0.727871,0.83422 1.123,1.08223 1.601315,1.08223 0.353537,0 0.686278,-0.0902 0.769463,-0.22547 0.06239,-0.11273 0.457519,-0.31565 0.894241,-0.42838 0.665482,-0.20292 0.852649,-0.18037 1.559723,0.36074 1.28937,0.9695 1.601314,1.55571 1.601314,2.9085 v 1.21752 h 0.894241 c 1.060612,0 1.601315,0.49602 1.601315,1.48807 0,1.14987 0.22876,1.28515 1.767686,1.17242 1.310167,-0.13528 1.434945,-0.18038 2.038037,-0.99205 0.79026,-1.01459 0.915038,-1.51062 0.95663,-3.51726 0.0208,-1.87136 0.16637,-1.98409 2.599538,-1.98409 1.746889,0 1.809278,-0.0226 2.599537,-0.78913 0.436722,-0.42838 0.873445,-0.78913 0.95663,-0.78913 0.08319,0 0.436722,0.27056 0.790259,0.58621 l 0.644686,0.58621 0.540704,-0.74403 c 0.291148,-0.42839 0.83185,-1.08224 1.206186,-1.44298 1.996445,-1.98409 2.74511,-2.9085 2.74511,-3.38198 0,-0.3382 0.249555,-0.72149 0.644686,-1.03714 0.540703,-0.40584 0.707073,-0.45093 1.185389,-0.22546 0.291148,0.15782 0.665483,0.47347 0.831853,0.72148 0.207962,0.31566 0.519906,0.42839 1.268574,0.42839 0.852649,0 1.039815,-0.0902 1.434944,-0.65385 0.249555,-0.36075 0.79026,-0.78913 1.226981,-0.94695 0.436724,-0.15783 1.185389,-0.49603 1.663705,-0.76659 0.457518,-0.2931 1.372555,-0.58621 2.017242,-0.65385 l 1.164592,-0.18037 -1.060611,-1.03714 c -1.247778,-1.21751 -1.809279,-1.57825 -5.552612,-3.69763 l -2.786705,-1.55571 -2.100427,0.27056 c -2.932279,0.3382 -3.764129,0.29311 -4.928722,-0.36074 -1.143797,-0.6313 -2.246001,-0.69894 -3.285816,-0.20292 z"
       id="path24"
       style="stroke-width:0.0216537;fill:#0066ff" />
  </g>
</svg>
