<?xml version="1.0" encoding="UTF-8" standalone="no"?>
<svg
   xmlns:dc="http://purl.org/dc/elements/1.1/"
   xmlns:cc="http://creativecommons.org/ns#"
   xmlns:rdf="http://www.w3.org/1999/02/22-rdf-syntax-ns#"
   xmlns:svg="http://www.w3.org/2000/svg"
   xmlns="http://www.w3.org/2000/svg"
   xmlns:sodipodi="http://sodipodi.sourceforge.net/DTD/sodipodi-0.dtd"
   xmlns:inkscape="http://www.inkscape.org/namespaces/inkscape"
   width="29.946659mm"
   height="33.350136mm"
   viewBox="0 0 29.946659 33.350136"
   version="1.1"
   id="svg207"
   inkscape:version="1.0.1 (3bc2e813f5, 2020-09-07)"
   sodipodi:docname="nicaragua2.svg">
  <defs
     id="defs201" />
  <sodipodi:namedview
     id="base"
     pagecolor="#ffffff"
     bordercolor="#666666"
     borderopacity="1.0"
     inkscape:pageopacity="0.0"
     inkscape:pageshadow="2"
     inkscape:zoom="0.35"
     inkscape:cx="5.1635654"
     inkscape:cy="114.45295"
     inkscape:document-units="mm"
     inkscape:current-layer="layer1"
     inkscape:document-rotation="0"
     showgrid="false"
     inkscape:window-width="1258"
     inkscape:window-height="728"
     inkscape:window-x="92"
     inkscape:window-y="0"
     inkscape:window-maximized="0" />
  <metadata
     id="metadata204">
    <rdf:RDF>
      <cc:Work
         rdf:about="">
        <dc:format>image/svg+xml</dc:format>
        <dc:type
           rdf:resource="http://purl.org/dc/dcmitype/StillImage" />
        <dc:title></dc:title>
      </cc:Work>
    </rdf:RDF>
  </metadata>
  <g
     inkscape:label="Capa 1"
     inkscape:groupmode="layer"
     id="layer1"
     transform="translate(-104.46714,-117.88432)">
    <path
       d="m 131.79348,118.29413 c -1.33096,0.51857 -2.20441,1.0146 -3.49378,1.9841 -1.31017,0.9695 -2.20441,0.99204 -3.07785,0.0676 -0.33274,-0.38329 -0.76946,-0.6764 -0.97743,-0.6764 -0.43672,0 -1.26857,0.90186 -1.26857,1.37534 0,0.60875 -1.26858,2.2321 -2.10043,2.70558 -0.43672,0.22547 -1.16459,0.94696 -1.58052,1.55571 -0.43672,0.6313 -0.89424,1.12733 -1.06061,1.12733 -0.14557,0 -0.49911,-0.27056 -0.76946,-0.58621 l -0.49911,-0.58621 -1.08141,0.92441 c -1.06061,0.9244 -1.08141,0.9244 -2.8075,0.9244 h -1.74689 v 1.44298 c 0,1.82627 -0.14557,2.25465 -1.26857,3.60744 l -0.91504,1.05969 -1.87167,0.20292 c -1.1022,0.11273 -1.95485,0.0902 -2.07963,-0.0226 -0.31194,-0.3382 -0.72787,-0.22546 -0.72787,0.20292 0,0.47348 1.93406,3.08887 3.18184,4.28384 0.45751,0.47348 1.35175,1.55571 1.99644,2.41248 0.64469,0.87931 2.53715,3.02123 4.20085,4.77986 2.43317,2.5703 3.11945,3.17906 3.47298,3.08887 0.24956,-0.0902 0.91504,0.11273 1.58052,0.45093 0.62389,0.31565 1.26858,0.58621 1.41415,0.58621 0.14558,0 0.93584,0.24801 1.7261,0.56366 1.53892,0.58622 2.10042,0.54112 2.55794,-0.13527 0.33274,-0.51857 0.5615,-0.51857 1.60132,0.0225 0.45751,0.24801 0.95663,0.42838 1.123,0.45093 0.14557,0 0.5407,0.24801 0.89424,0.56366 0.33274,0.31565 0.79026,0.56366 1.01902,0.56366 0.39512,0 2.89068,-1.2626 2.89068,-1.46552 0,-0.0451 -0.18717,-0.49602 -0.43672,-0.99205 -0.35354,-0.74403 -0.39513,-1.12732 -0.29115,-2.20956 0.0832,-0.72148 0.24956,-1.48807 0.33274,-1.69099 0.14558,-0.2931 0.0832,-0.51856 -0.20796,-0.83422 -0.31195,-0.33819 -0.37434,-0.58621 -0.22876,-1.19496 0.24956,-1.17242 0.5823,-1.939 1.24778,-2.99869 0.72787,-1.14987 0.79026,-1.91645 0.20796,-2.77322 -0.35354,-0.51857 -0.41593,-1.03714 -0.45752,-3.65254 l -0.0624,-3.04378 0.99822,-2.41247 c 1.06061,-2.63795 1.26858,-4.19366 0.66549,-5.45626 -0.45752,-0.92441 -0.39513,-2.43503 0.10398,-3.13397 0.22876,-0.31565 0.41592,-0.78913 0.41592,-1.03714 0,-0.40584 -0.12478,-0.47347 -0.76946,-0.45093 -0.43672,0 -1.26858,0.20292 -1.85087,0.40584 z"
       id="path26"
       style="stroke-width:0.0216537;fill:#0066ff" />
  </g>
</svg>
