<?xml version="1.0" encoding="UTF-8" standalone="no"?>
<svg
   xmlns:dc="http://purl.org/dc/elements/1.1/"
   xmlns:cc="http://creativecommons.org/ns#"
   xmlns:rdf="http://www.w3.org/1999/02/22-rdf-syntax-ns#"
   xmlns:svg="http://www.w3.org/2000/svg"
   xmlns="http://www.w3.org/2000/svg"
   xmlns:sodipodi="http://sodipodi.sourceforge.net/DTD/sodipodi-0.dtd"
   xmlns:inkscape="http://www.inkscape.org/namespaces/inkscape"
   width="40.891258mm"
   height="18.220402mm"
   viewBox="0 0 40.891258 18.220402"
   version="1.1"
   id="svg254"
   inkscape:version="1.0.1 (3bc2e813f5, 2020-09-07)"
   sodipodi:docname="pana.svg">
  <defs
     id="defs248" />
  <sodipodi:namedview
     id="base"
     pagecolor="#ffffff"
     bordercolor="#666666"
     borderopacity="1.0"
     inkscape:pageopacity="0.0"
     inkscape:pageshadow="2"
     inkscape:zoom="0.35"
     inkscape:cx="85.846244"
     inkscape:cy="51.57509"
     inkscape:document-units="mm"
     inkscape:current-layer="layer1"
     inkscape:document-rotation="0"
     showgrid="false"
     inkscape:window-width="1258"
     inkscape:window-height="728"
     inkscape:window-x="26"
     inkscape:window-y="0"
     inkscape:window-maximized="0" />
  <metadata
     id="metadata251">
    <rdf:RDF>
      <cc:Work
         rdf:about="">
        <dc:format>image/svg+xml</dc:format>
        <dc:type
           rdf:resource="http://purl.org/dc/dcmitype/StillImage" />
        <dc:title></dc:title>
      </cc:Work>
    </rdf:RDF>
  </metadata>
  <g
     inkscape:label="Capa 1"
     inkscape:groupmode="layer"
     id="layer1"
     transform="translate(-83.119848,-134.52076)">
    <path
       d="m 84.596386,135.0196 c -0.436723,0.51857 -0.478315,0.72149 -0.457519,3.40452 0.0208,1.57826 0.124778,3.04378 0.228759,3.26925 0.166371,0.3382 0.04159,0.65385 -0.519907,1.44297 -0.39513,0.58621 -0.727871,1.19497 -0.727871,1.37534 0,0.38329 0.644686,0.45093 0.95663,0.11273 0.415926,-0.45093 3.868112,-0.24801 4.15926,0.24802 0.06239,0.11273 0.415926,0.20291 0.769463,0.20291 0.374334,0 0.998223,0.20292 1.393352,0.42839 0.39513,0.24801 1.102205,0.6313 1.559723,0.87931 0.457519,0.24801 1.206185,0.92441 1.642907,1.53317 1.35176,1.84881 1.996445,2.32229 1.996445,1.46552 0,-0.51857 0.374333,-0.81167 1.039815,-0.81167 0.415926,0 0.540704,0.13527 0.623889,0.78912 0.08319,0.42839 0.228759,0.99205 0.353537,1.24006 0.124778,0.24801 0.270352,0.83422 0.353537,1.28515 l 0.145574,0.85677 h 1.060612 c 0.811055,0 1.185388,-0.13528 1.663708,-0.56366 0.49911,-0.45093 0.85264,-0.56366 1.74689,-0.56366 1.28937,0 1.43494,-0.29311 0.58229,-1.14988 -0.74866,-0.72149 -2.99467,-4.03582 -2.99467,-4.39657 0,-0.42838 2.72432,-2.11937 3.4106,-2.11937 0.14557,0 0.5615,-0.3382 0.93583,-0.76658 0.60309,-0.65385 0.64469,-0.83422 0.43672,-1.26261 -0.33274,-0.67639 0.0624,-1.12732 1.03982,-1.12732 0.49911,0 0.89424,-0.15783 1.123,-0.42839 0.5615,-0.67639 0.33274,-1.21751 -0.64469,-1.6008 -0.81105,-0.2931 -0.91503,-0.2931 -1.28937,0.0902 -0.60309,0.58621 -1.123,0.33819 -0.85265,-0.42839 0.29115,-0.81167 0.31195,-0.78913 -0.60309,-0.78913 -0.45752,0 -0.99822,0.18038 -1.28937,0.42839 -0.27035,0.22546 -0.83185,0.49602 -1.22698,0.58621 -0.39513,0.0902 -1.06061,0.3382 -1.455742,0.56366 -0.39513,0.22547 -1.414148,0.6313 -2.225204,0.92441 l -1.51813,0.51857 -0.873444,-0.54112 c -0.499112,-0.27056 -1.164593,-0.78913 -1.476538,-1.10478 -0.540704,-0.54111 -0.603092,-0.56366 -0.790259,-0.18037 -0.228759,0.42838 -0.72787,0.40584 -2.682722,-0.11273 -0.935834,-0.24801 -1.850871,-1.10478 -1.871667,-1.75863 0,-0.18037 -0.187167,-0.65385 -0.415926,-1.05969 -0.291149,-0.54111 -0.665482,-0.81167 -1.476538,-1.05968 -1.372556,-0.45093 -1.268574,-0.45093 -1.830074,0.18037 z"
       id="path32"
       style="stroke-width:0.0216537" />
    <path
       d="m 106.76524,135.94401 c -0.81105,0.76658 -0.87344,1.24005 -0.14557,1.24005 0.43672,0 0.83185,0.60876 0.68628,1.05969 -0.12478,0.40584 1.16459,0.99205 1.89246,0.85677 0.70707,-0.13528 3.07785,0.9695 4.36722,2.02918 0.37434,0.31566 0.85265,0.56367 1.03982,0.56367 0.18716,0 0.5199,0.2931 0.70707,0.67639 0.35354,0.6764 0.45752,0.72149 2.03804,0.76658 1.03981,0.0451 1.76768,1.03714 0.76946,1.03714 -0.18716,0 -0.72787,0.36075 -1.20618,0.78913 l -0.87345,0.76658 0.27035,1.19497 c 0.24956,1.03714 0.6031,1.66844 2.2668,4.26129 0.49911,0.76658 0.74867,0.81168 1.24778,0.20292 0.29115,-0.3382 0.33274,-0.65385 0.22876,-1.44298 -0.16637,-1.19496 0.12478,-1.53316 0.62389,-0.69894 0.20796,0.3382 0.5407,0.56366 0.85264,0.56366 0.6239,0 1.7261,-0.85676 1.7261,-1.37533 0,-0.20292 0.18717,-0.63131 0.43672,-0.94696 0.35354,-0.51857 0.39513,-0.72149 0.20796,-1.42043 -0.10398,-0.42838 -0.45751,-1.17242 -0.76946,-1.6008 -0.41593,-0.60876 -0.5615,-1.03714 -0.5407,-1.73608 0.0416,-0.85677 -0.0624,-1.05969 -1.1646,-2.25465 -0.64468,-0.72149 -1.53892,-1.51062 -1.97565,-1.73609 -0.41592,-0.24801 -0.99822,-0.83422 -1.26857,-1.30769 -0.39513,-0.65385 -0.68628,-0.90187 -1.20618,-0.99205 -0.37434,-0.0676 -1.28937,-0.27056 -2.03804,-0.45093 -3.16104,-0.76658 -4.38802,-0.92441 -4.80395,-0.65385 -0.47831,0.3382 -1.76768,0.36074 -1.95485,0.0451 -0.22876,-0.38329 -0.5823,-0.22546 -1.41415,0.56367 z"
       id="path34"
       style="stroke-width:0.0216537" />
  </g>
</svg>
